# xmcd CD database file
#
# Track frame offsets:
#	150
#	27767
#	48107
#	71885
#	94031
#	122824
#	153052
#	179316
#	209378
#
# Disc length: 3295 seconds
#
# Revision: 0
# Processed by: cddbd v1.5.2PL0 Copyright (c) Steve Scherf et al.
# Submitted via: CDex 1.51
#
DISCID=700cdd09
DTITLE=Ben Wendel - What We Bring
DYEAR=2016
DGENRE=Jazz
TTITLE0=Amian
TTITLE1=Fall
TTITLE2=Spring
TTITLE3=Doubt
TTITLE4=Song Song
TTITLE5=Soli
TTITLE6=Austin
TTITLE7=Solar
TTITLE8=Jonathan
EXTD=YEAR: 2016
EXTT0=
EXTT1=
EXTT2=
EXTT3=
EXTT4=
EXTT5=
EXTT6=
EXTT7=
EXTT8=
PLAYORDER=
